<svg xmlns="http://www.w3.org/2000/svg" xmlns:xlink="http://www.w3.org/1999/xlink" width="329" height="209" viewBox="0 0 329 209">
  <defs>
    <clipPath id="clip-path">
      <rect id="Rectangle_1555" data-name="Rectangle 1555" width="329" height="209" rx="5" transform="translate(80 38)"/>
    </clipPath>
  </defs>
  <g id="home-intake-form-a" transform="translate(-80 -38)" clip-path="url(#clip-path)">
    <rect id="Rectangle_1554" data-name="Rectangle 1554" width="400" height="517" fill="#fff"/>
    <g id="Component_9_1" data-name="Component 9 – 1" transform="translate(4)">
      <rect id="Rectangle_695" data-name="Rectangle 695" width="538" height="517" rx="8" fill="#fff"/>
      <path id="Rectangle_1221" data-name="Rectangle 1221" d="M0,0H496.348V371.856c0,4.057-4.444,7.345-9.927,7.345H9.927C4.444,379.2,0,375.913,0,371.856Z" transform="translate(0 16.799)" fill="#f6f8f9"/>
      <text id="a.eckstein_gmail.com" data-name="a.eckstein@gmail.com" transform="translate(115 456.355)" fill="#1e1e1e" font-size="12" font-family="ArialMT, Arial"><tspan x="0" y="0">a.eckstein@gmail.com</tspan></text>
      <text id="Email_Address" data-name="Email Address" transform="translate(105 430)" fill="#5d666d" font-size="12" font-family="ArialMT, Arial" opacity="0.75"><tspan x="0" y="0">Email Address</tspan></text>
      <g id="Rectangle_1217" data-name="Rectangle 1217" transform="translate(105 437.355)" fill="none" stroke="#ddd" stroke-width="1">
        <rect width="284.582" height="30" rx="4" stroke="none"/>
        <rect x="0.5" y="0.5" width="283.582" height="29" rx="3.5" fill="none"/>
      </g>
      <text id="First_Name" data-name="First Name" transform="translate(105 366)" fill="#5d666d" font-size="12" font-family="ArialMT, Arial" opacity="0.75"><tspan x="0" y="0">First Name</tspan></text>
      <text id="Last_Name" data-name="Last Name" transform="translate(242.762 366)" fill="#5d666d" font-size="12" font-family="ArialMT, Arial" opacity="0.75"><tspan x="0" y="0">Last Name</tspan></text>
      <text id="Anna" transform="translate(115 392.729)" fill="#1e1e1e" font-size="12" font-family="ArialMT, Arial"><tspan x="0" y="0">Anna</tspan></text>
      <text id="Eckstein" transform="translate(258.119 392.729)" fill="#1e1e1e" font-size="12" font-family="ArialMT, Arial"><tspan x="0" y="0">Eckstein</tspan></text>
      <g id="Rectangle_1215" data-name="Rectangle 1215" transform="translate(105 373.729)" fill="none" stroke="#ddd" stroke-width="1">
        <rect width="127" height="30" rx="4" stroke="none"/>
        <rect x="0.5" y="0.5" width="126" height="29" rx="3.5" fill="none"/>
      </g>
      <g id="Rectangle_1216" data-name="Rectangle 1216" transform="translate(242.508 373.729)" fill="none" stroke="#ddd" stroke-width="1">
        <rect width="147.074" height="30" rx="4" stroke="none"/>
        <rect x="0.5" y="0.5" width="146.074" height="29" rx="3.5" fill="none"/>
      </g>
      <g id="Group_1050" data-name="Group 1050" transform="translate(0 2)">
        <g id="Group_1046" data-name="Group 1046" transform="translate(-7 -121)">
          <rect id="Rectangle_1220" data-name="Rectangle 1220" width="285" height="30" rx="4" transform="translate(105 224)" fill="#fff"/>
          <text id="Anna-2" data-name="Anna" transform="translate(144 243)" fill="#1e365e" font-size="12" font-family="ArialMT, Arial"><tspan x="0" y="0">Counsellors details</tspan></text>
          <g id="Rectangle_1215-2" data-name="Rectangle 1215" transform="translate(105 224)" fill="none" stroke="#ddd" stroke-width="1">
            <rect width="285" height="30" rx="4" stroke="none"/>
            <rect x="0.5" y="0.5" width="284" height="29" rx="3.5" fill="none"/>
          </g>
          <g id="Group_1044" data-name="Group 1044" transform="translate(0 -1)">
            <g id="Ellipse_121" data-name="Ellipse 121" transform="translate(117 232)" fill="#dee9f4" stroke="#1e365e" stroke-width="1">
              <circle cx="8.5" cy="8.5" r="8.5" stroke="none"/>
              <circle cx="8.5" cy="8.5" r="8" fill="none"/>
            </g>
            <g id="Group_1043" data-name="Group 1043">
              <g id="Group_1042" data-name="Group 1042" transform="translate(0 0.5)">
                <line id="Line_5" data-name="Line 5" y2="7" transform="translate(125.5 236.5)" fill="none" stroke="#1e365e" stroke-linecap="round" stroke-width="1"/>
                <line id="Line_6" data-name="Line 6" y2="7" transform="translate(129 240) rotate(90)" fill="none" stroke="#1e365e" stroke-linecap="round" stroke-width="1"/>
              </g>
            </g>
          </g>
        </g>
        <g id="Group_1047" data-name="Group 1047" transform="translate(-7 -167)">
          <rect id="Rectangle_1220-2" data-name="Rectangle 1220" width="285" height="30" rx="4" transform="translate(105 224)" fill="#fff"/>
          <text id="Anna-3" data-name="Anna" transform="translate(144 243)" fill="#1e365e" font-size="12" font-family="ArialMT, Arial"><tspan x="0" y="0">Marriage / defacto separation</tspan></text>
          <g id="Rectangle_1215-3" data-name="Rectangle 1215" transform="translate(105 224)" fill="none" stroke="#ddd" stroke-width="1">
            <rect width="285" height="30" rx="4" stroke="none"/>
            <rect x="0.5" y="0.5" width="284" height="29" rx="3.5" fill="none"/>
          </g>
          <g id="Group_1044-2" data-name="Group 1044" transform="translate(0 -1)">
            <g id="Ellipse_121-2" data-name="Ellipse 121" transform="translate(117 232)" fill="#dee9f4" stroke="#1e365e" stroke-width="1">
              <circle cx="8.5" cy="8.5" r="8.5" stroke="none"/>
              <circle cx="8.5" cy="8.5" r="8" fill="none"/>
            </g>
            <g id="Group_1043-2" data-name="Group 1043">
              <g id="Group_1042-2" data-name="Group 1042" transform="translate(0 0.5)">
                <line id="Line_5-2" data-name="Line 5" y2="7" transform="translate(125.5 236.5)" fill="none" stroke="#1e365e" stroke-linecap="round" stroke-width="1"/>
                <line id="Line_6-2" data-name="Line 6" y2="7" transform="translate(129 240) rotate(90)" fill="none" stroke="#1e365e" stroke-linecap="round" stroke-width="1"/>
              </g>
            </g>
          </g>
        </g>
        <g id="Group_1048" data-name="Group 1048" transform="translate(-7 -121)">
          <rect id="Rectangle_1220-3" data-name="Rectangle 1220" width="285" height="30" rx="4" transform="translate(105 270)" fill="#fff"/>
          <text id="Anna-4" data-name="Anna" transform="translate(144 289)" fill="#1e365e" font-size="12" font-family="ArialMT, Arial"><tspan x="0" y="0">Child</tspan></text>
          <g id="Rectangle_1215-4" data-name="Rectangle 1215" transform="translate(105 270)" fill="none" stroke="#ddd" stroke-width="1">
            <rect width="285" height="30" rx="4" stroke="none"/>
            <rect x="0.5" y="0.5" width="284" height="29" rx="3.5" fill="none"/>
          </g>
          <g id="Group_1045" data-name="Group 1045" transform="translate(0 45)">
            <g id="Ellipse_121-3" data-name="Ellipse 121" transform="translate(117 232)" fill="#dee9f4" stroke="#1e365e" stroke-width="1">
              <circle cx="8.5" cy="8.5" r="8.5" stroke="none"/>
              <circle cx="8.5" cy="8.5" r="8" fill="none"/>
            </g>
            <g id="Group_1043-3" data-name="Group 1043">
              <g id="Group_1042-3" data-name="Group 1042" transform="translate(0 0.5)">
                <line id="Line_5-3" data-name="Line 5" y2="7" transform="translate(125.5 236.5)" fill="none" stroke="#1e365e" stroke-linecap="round" stroke-width="1"/>
                <line id="Line_6-3" data-name="Line 6" y2="7" transform="translate(129 240) rotate(90)" fill="none" stroke="#1e365e" stroke-linecap="round" stroke-width="1"/>
              </g>
            </g>
          </g>
        </g>
        <g id="Group_1049" data-name="Group 1049" transform="translate(-7 -75)">
          <rect id="Rectangle_1220-4" data-name="Rectangle 1220" width="285" height="30" rx="4" transform="translate(105 270)" fill="#fff"/>
          <text id="Anna-5" data-name="Anna" transform="translate(144 289)" fill="#1e365e" font-size="12" font-family="ArialMT, Arial"><tspan x="0" y="0">Other Side’s Solicitor</tspan></text>
          <g id="Rectangle_1215-5" data-name="Rectangle 1215" transform="translate(105 270)" fill="none" stroke="#ddd" stroke-width="1">
            <rect width="285" height="30" rx="4" stroke="none"/>
            <rect x="0.5" y="0.5" width="284" height="29" rx="3.5" fill="none"/>
          </g>
          <g id="Group_1045-2" data-name="Group 1045" transform="translate(0 45)">
            <g id="Ellipse_121-4" data-name="Ellipse 121" transform="translate(117 232)" fill="#dee9f4" stroke="#1e365e" stroke-width="1">
              <circle cx="8.5" cy="8.5" r="8.5" stroke="none"/>
              <circle cx="8.5" cy="8.5" r="8" fill="none"/>
            </g>
            <g id="Group_1043-4" data-name="Group 1043">
              <g id="Group_1042-4" data-name="Group 1042" transform="translate(0 0.5)">
                <line id="Line_5-4" data-name="Line 5" y2="7" transform="translate(125.5 236.5)" fill="none" stroke="#1e365e" stroke-linecap="round" stroke-width="1"/>
                <line id="Line_6-4" data-name="Line 6" y2="7" transform="translate(129 240) rotate(90)" fill="none" stroke="#1e365e" stroke-linecap="round" stroke-width="1"/>
              </g>
            </g>
          </g>
        </g>
      </g>
    </g>
  </g>
</svg>
