<svg xmlns="http://www.w3.org/2000/svg" xmlns:xlink="http://www.w3.org/1999/xlink" width="411" height="342" viewBox="0 0 411 342">
  <defs>
    <clipPath id="clip-path">
      <rect id="Rectangle_1555" data-name="Rectangle 1555" width="411" height="342" rx="5" transform="translate(39)"/>
    </clipPath>
    <filter id="Path_1792" x="0.5" y="3.22" width="416.489" height="89.055" filterUnits="userSpaceOnUse">
      <feOffset dy="5" input="SourceAlpha"/>
      <feGaussianBlur stdDeviation="7.5" result="blur"/>
      <feFlood flood-opacity="0.149"/>
      <feComposite operator="in" in2="blur"/>
      <feComposite in="SourceGraphic"/>
    </filter>
  </defs>
  <g id="home-intake-form" transform="translate(-1084 -2871)">
    <g id="Web-portal-intake-form" transform="translate(1045 2871)" clip-path="url(#clip-path)">
      <rect id="Rectangle_1554" data-name="Rectangle 1554" width="400" height="517" fill="#fff"/>
      <g id="Component_9_1" data-name="Component 9 – 1">
        <rect id="Rectangle_695" data-name="Rectangle 695" width="538" height="517" rx="8" fill="#fff"/>
        <path id="Rectangle_1221" data-name="Rectangle 1221" d="M0,0H496.348V465.065c0,5.074-4.444,9.186-9.927,9.186H9.927c-5.483,0-9.927-4.113-9.927-9.186Z" transform="translate(0 42.748)" fill="#f6f8f9"/>
        <g transform="matrix(1, 0, 0, 1, 39, 0)" filter="url(#Path_1792)">
          <path id="Path_1792-2" data-name="Path 1792" d="M636.807,145.455H271.08c-1.576,0-2.88-2.414-2.88-5.331V106.731c0-2.917,1.3-5.331,2.88-5.331H636.807c1.576,0,2.88,2.414,2.88,5.331v33.394C639.741,143.142,638.437,145.455,636.807,145.455Z" transform="translate(-245.2 -80.68)" fill="#fff"/>
        </g>
        <rect id="Rectangle_1220" data-name="Rectangle 1220" width="334" height="286" rx="4" transform="translate(80 160)" fill="#fff"/>
        <g id="Group_739" data-name="Group 739" transform="translate(74.018 32.289)">
          <g id="Group_736" data-name="Group 736" transform="translate(274.633 0.183)">
            <path id="Path_1794" data-name="Path 1794" d="M881.252,121a10.235,10.235,0,1,1-10.226-9.8,10.014,10.014,0,0,1,10.226,9.8" transform="translate(-860.791 -111.198)" fill="#f3f3f3"/>
            <path id="Path_1825" data-name="Path 1825" d="M881.252,121a10.235,10.235,0,1,1-10.226-9.8,10.014,10.014,0,0,1,10.226,9.8" transform="translate(-815.791 -111.198)" fill="#f3f3f3"/>
            <text id="_2" data-name="2" transform="translate(6.638 14.208)" fill="#606060" font-size="14" font-family="Arial-BoldMT, Arial" font-weight="700"><tspan x="0" y="0">2</tspan></text>
          </g>
          <g id="Group_737" data-name="Group 737" transform="translate(-0.01 -0.002)">
            <path id="Path_1795" data-name="Path 1795" d="M306.737,121.183a10.428,10.428,0,1,1-10.418-9.983,10.2,10.2,0,0,1,10.418,9.983" transform="translate(-285.89 -111.198)" fill="#1c445e"/>
            <text id="_1" data-name="1" transform="translate(6.405 14.392)" fill="#fff" font-size="14" font-family="Arial-BoldMT, Arial" font-weight="700"><tspan x="0" y="0">1</tspan></text>
          </g>
          <text id="Your_Details" data-name="Your Details" transform="translate(30.524 14.711)" fill="#31454f" font-size="15" font-family="ArialMT, Arial"><tspan x="0" y="0">Your Details</tspan></text>
          <path id="Path_1824" data-name="Path 1824" d="M115.282-.722,251.438-.5V1.278L115.282,1.052Z" transform="translate(13.247 10.433)" fill="#1c445e"/>
          <rect id="Rectangle_1212" data-name="Rectangle 1212" width="14" height="2.265" transform="translate(300.614 9.189)" fill="#f3f3f3"/>
          <g id="Group_738" data-name="Group 738" transform="translate(325.416 7.11)">
            <path id="Path_1797" data-name="Path 1797" d="M917.6,122.728l4.1,3.584,5.877-6.912" transform="translate(-917.6 -119.4)" fill="#f3f3f3" stroke="#1c445e" stroke-linecap="round" stroke-miterlimit="10" stroke-width="1.124"/>
          </g>
        </g>
        <text id="About_You" data-name="About You" transform="translate(105.15 195.51)" fill="#0060a9" font-size="16" font-family="ArialMT, Arial"><tspan x="0" y="0">About You</tspan></text>
        <text id="Purchase" transform="translate(87 112)" fill="#1e365e" font-size="16" font-family="ArialMT, Arial"><tspan x="0" y="0">Children</tspan></text>
        <text id="Conveyancing_Property" data-name="Conveyancing &amp; Property" transform="translate(87.156 130.227)" fill="#1e1e1e" font-size="12" font-family="ArialMT, Arial"><tspan x="0" y="0">Family Law</tspan></text>
        <text id="a.eckstein_gmail.com" data-name="a.eckstein@gmail.com" transform="translate(115 312.355)" fill="#1e1e1e" font-size="12" font-family="ArialMT, Arial"><tspan x="0" y="0">a.eckstein@gmail.com</tspan></text>
        <text id="Email_Address" data-name="Email Address" transform="translate(105 286)" fill="#5d666d" font-size="12" font-family="ArialMT, Arial" opacity="0.75"><tspan x="0" y="0">Email Address</tspan></text>
        <g id="Rectangle_1217" data-name="Rectangle 1217" transform="translate(105 293.355)" fill="none" stroke="#ddd" stroke-width="1">
          <rect width="284.582" height="30" rx="4" stroke="none"/>
          <rect x="0.5" y="0.5" width="283.582" height="29" rx="3.5" fill="none"/>
        </g>
        <text id="First_Name" data-name="First Name" transform="translate(105 222)" fill="#5d666d" font-size="12" font-family="ArialMT, Arial" opacity="0.75"><tspan x="0" y="0">First Name</tspan></text>
        <text id="Last_Name" data-name="Last Name" transform="translate(242.762 222)" fill="#5d666d" font-size="12" font-family="ArialMT, Arial" opacity="0.75"><tspan x="0" y="0">Last Name</tspan></text>
        <text id="Anna" transform="translate(115 248.729)" fill="#1e1e1e" font-size="12" font-family="ArialMT, Arial"><tspan x="0" y="0">Anna</tspan></text>
        <text id="Eckstein" transform="translate(258.119 248.729)" fill="#1e1e1e" font-size="12" font-family="ArialMT, Arial"><tspan x="0" y="0">Eckstein</tspan></text>
        <g id="Rectangle_1215" data-name="Rectangle 1215" transform="translate(105 229.729)" fill="none" stroke="#ddd" stroke-width="1">
          <rect width="127" height="30" rx="4" stroke="none"/>
          <rect x="0.5" y="0.5" width="126" height="29" rx="3.5" fill="none"/>
        </g>
        <g id="Rectangle_1216" data-name="Rectangle 1216" transform="translate(242.508 229.729)" fill="none" stroke="#ddd" stroke-width="1">
          <rect width="147.074" height="30" rx="4" stroke="none"/>
          <rect x="0.5" y="0.5" width="146.074" height="29" rx="3.5" fill="none"/>
        </g>
      </g>
    </g>
  </g>
</svg>
