<svg xmlns="http://www.w3.org/2000/svg" width="39.421" height="40" viewBox="0 0 39.421 40">
  <g id="icon-data-tansition" transform="translate(-29.449 -18.136)">
    <path id="Path_3247" data-name="Path 3247" d="M49.435,51.171a2.7,2.7,0,0,1-1.92-.794L37.3,40.155a2.715,2.715,0,0,1,1.919-4.633h4.017V20.846a2.714,2.714,0,0,1,2.711-2.71h6.975a2.716,2.716,0,0,1,2.713,2.71V35.525h4.02a2.715,2.715,0,0,1,1.919,4.632L51.355,50.377A2.7,2.7,0,0,1,49.435,51.171Zm-.39-2.051a.774.774,0,0,0,.94-.118L60.2,38.784a.776.776,0,0,0-.55-1.324H53.7V20.849a.776.776,0,0,0-.773-.774H45.955a.776.776,0,0,0-.773.773V37.462H39.224a.777.777,0,0,0-.551,1.322L49.026,49.138Z" transform="translate(-0.282 0)" fill="#1e365e"/>
    <path id="Path_3248" data-name="Path 3248" d="M32.452,59.236a3.007,3.007,0,0,1-3-3V48.68a3.006,3.006,0,0,1,3-3h5.642l2.071,1.94H32.452a1.068,1.068,0,0,0-1.063,1.063v7.553A1.068,1.068,0,0,0,32.452,57.3H65.867a1.069,1.069,0,0,0,1.064-1.062V48.68a1.068,1.068,0,0,0-1.063-1.063H58.074l2.066-1.936h5.722a3.008,3.008,0,0,1,3.008,3v7.554a3.006,3.006,0,0,1-3,3Z" transform="translate(0 -1.1)" fill="#1e365e"/>
    <path id="Path_3249" data-name="Path 3249" d="M64.685,53.889a1.452,1.452,0,1,0-1.453,1.452A1.457,1.457,0,0,0,64.685,53.889Z" transform="translate(-1.291 -1.37)" fill="#37a6de"/>
    <path id="Path_3250" data-name="Path 3250" d="M58.392,55.34a1.452,1.452,0,1,0-1.453-1.452A1.452,1.452,0,0,0,58.392,55.34Z" transform="translate(-1.098 -1.37)" fill="#37a6de"/>
  </g>
</svg>
