<svg xmlns="http://www.w3.org/2000/svg" width="40.001" height="40" viewBox="0 0 40.001 40">
  <g id="icon-money" transform="translate(-141.253 -82.871)">
    <path id="Path_3321" data-name="Path 3321" d="M159.614,118.882v-4.224H158.57a7.95,7.95,0,0,1-4.838-1.624l-.324-.246,1.7-1.748.236.163a5.756,5.756,0,0,0,3.227,1.007H163.3a3.453,3.453,0,0,0,2.653-1.256,3.633,3.633,0,0,0-1.813-5.829l-7.46-2.192a6.045,6.045,0,0,1-4.082-7.268,6.148,6.148,0,0,1,5.987-4.58h1.025V86.861h2.376v4.224h1.045a7.977,7.977,0,0,1,4.837,1.624l.325.245L166.5,94.7l-.236-.163a5.756,5.756,0,0,0-3.227-1.007H158.3a3.453,3.453,0,0,0-2.653,1.256,3.634,3.634,0,0,0,1.813,5.829l7.461,2.192A6.045,6.045,0,0,1,169,110.078a6.148,6.148,0,0,1-5.987,4.58H161.99v4.224Z" transform="translate(0.451)" fill="#1e365e"/>
    <path id="Path_3322" data-name="Path 3322" d="M161.253,82.871a20,20,0,1,0,20,20A20.022,20.022,0,0,0,161.253,82.871Zm17.806,20a17.805,17.805,0,1,1-17.806-17.806A17.826,17.826,0,0,1,179.059,102.871Z" transform="translate(0 0)" fill="#37a6de"/>
    <rect id="Rectangle_1564" data-name="Rectangle 1564" width="2.376" height="32.022" transform="translate(160.065 86.861)" fill="#1e365e"/>
  </g>
</svg>
