<svg xmlns="http://www.w3.org/2000/svg" width="100" height="100" viewBox="0 0 100 100">
  <g id="icon-litigation" transform="translate(-910 -4274)">
    <circle id="Ellipse_116" data-name="Ellipse 116" cx="50" cy="50" r="50" transform="translate(910 4274)" fill="#f6f8f9"/>
    <g id="Group_1018" data-name="Group 1018" transform="translate(-49 188)">
      <g id="Group_1017" data-name="Group 1017" transform="translate(984 4111)">
        <g id="Group_1016" data-name="Group 1016" transform="translate(0 0)">
          <path id="Path_3275" data-name="Path 3275" d="M225.191,204.678l-3.635-8.644a1.307,1.307,0,0,0-.276-.414l-18.944-18.939a3.742,3.742,0,0,0-1.1-2.486l-5.939-5.939-1.826,1.816,5.946,5.944a1.191,1.191,0,0,1,0,1.709L196.55,180.6a1.221,1.221,0,0,1-1.709,0l-5.957-5.956-1.828,1.818,5.962,5.962a3.749,3.749,0,0,0,2.484,1.092l18.947,18.944a1.3,1.3,0,0,0,.411.275l8.64,3.634a1.239,1.239,0,0,0,.5.1,1.288,1.288,0,0,0,1.188-1.787Zm-10.417-5.542-16.566-16.567c.057-.049.111-.1.164-.153l2.868-2.867c.053-.053.106-.11.156-.168l16.574,16.576Zm2.03,1.616,2.776-2.768,2.011,4.782Z" transform="translate(-175.265 -156.465)" fill="#1e365e"/>
          <path id="Path_3276" data-name="Path 3276" d="M194.832,185.694a5.729,5.729,0,0,0-.654-.812l-9.358-9.354a1.519,1.519,0,0,1-.34-1.65l1.257,1.259,1.834-1.812-2.738-2.735a1.2,1.2,0,0,1,0-1.713l2.869-2.868a1.218,1.218,0,0,1,1.709,0l2.764,2.764,1.831-1.81-2.775-2.775a3.744,3.744,0,0,0-4.544-.6l-3.21-3.208a3.1,3.1,0,0,0-4.266.027,3.03,3.03,0,0,0,0,4.247l3.2,3.2a3.79,3.79,0,0,0,.215,4.1,4.1,4.1,0,0,0,.369,5.387l9.409,9.409a2.921,2.921,0,0,1,.3.392,11.527,11.527,0,0,1,1.038,1.977,1.288,1.288,0,0,0,1.692.678,1.29,1.29,0,0,0,.678-1.69A14.276,14.276,0,0,0,194.832,185.694Zm-13.8-22.861a.415.415,0,0,1,.014-.613.454.454,0,0,1,.31-.139h.005a.413.413,0,0,1,.3.125l3.1,3.1-.627.629Z" transform="translate(-178.344 -159.544)" fill="#1e365e"/>
        </g>
        <path id="Path_3277" data-name="Path 3277" d="M192.865,165.806l2.25,2.25-8.258,8.193L184.567,174Z" transform="translate(-176.145 -157.331)" fill="#37a6de"/>
      </g>
    </g>
  </g>
</svg>
