<svg xmlns="http://www.w3.org/2000/svg" width="51" height="40" viewBox="0 0 51 40">
  <g id="icon-help-hands" transform="translate(-1342 -1419)">
    <rect id="Rectangle_1569" data-name="Rectangle 1569" width="51" height="40" transform="translate(1342 1419)" fill="none"/>
    <g id="icon-help-hands-2" data-name="icon-help-hands" transform="translate(74 -4.727)">
      <g id="Group_1034" data-name="Group 1034" transform="translate(1001.59 1301.187)">
        <path id="Path_3323" data-name="Path 3323" d="M266.41,134.53v-1.261a.634.634,0,0,1,.631-.644h8.987l3.942-3.968a3.866,3.866,0,0,1,2.693-1.117h5.505a3.6,3.6,0,0,1,1.537.342l-2.523,2.221h-4.52a1.251,1.251,0,0,0-.893.368l-4.7,4.691H267.041A.623.623,0,0,1,266.41,134.53Z" fill="#1e365e"/>
        <path id="Path_3324" data-name="Path 3324" d="M313.42,133.262v1.275a.631.631,0,0,1-.631.631H302.764l-4.809-4.678a1.263,1.263,0,0,0-.907-.381h-8a1.285,1.285,0,0,0-.854.328l-6.583,6.031a2.918,2.918,0,0,0-.184,4.1,3.006,3.006,0,0,0,4.1.171l5.952-5.453a1.265,1.265,0,1,1,1.708,1.866l-1.669,1.55-.578.526-1.892,1.734-.972.893-.828.762a5.5,5.5,0,0,1-7.686-.342,5.427,5.427,0,0,1,.342-7.673l2.457-2.26.092-.079,4.717-4.152a3.653,3.653,0,0,1,1.892-.552h8a3.757,3.757,0,0,1,2.68,1.117l4.06,3.955h8.987A.631.631,0,0,1,313.42,133.262Z" transform="translate(3.681 0.006)" fill="#37a6de"/>
        <path id="Path_3325" data-name="Path 3325" d="M304.711,144.586a4.234,4.234,0,0,1,.893,3.258c0,.039-.013.066-.013.105a.569.569,0,0,0-.013.066.1.1,0,0,1-.013.039,3.788,3.788,0,0,1-.723,1.432l-.749.92a3.8,3.8,0,0,1-4.756.946l-1.734,2.142a4.23,4.23,0,0,1-5.939.6l-.565-.486a6.367,6.367,0,0,1-8,.013l-6.451-6.175h-9.6a.634.634,0,0,1-.631-.644v-1.261a.623.623,0,0,1,.631-.631h10.616l7.121,6.819a3.794,3.794,0,0,0,5.269-.631l.828-1.012,2.431,2.063a1.672,1.672,0,0,0,2.326-.263l3.285-4.047,1.406,1.143a1.269,1.269,0,0,0,1.787-.184l.749-.92a1.271,1.271,0,0,0-.184-1.787l-9.2-7.45,1.892-1.747,8.908,7.24a2.8,2.8,0,0,1,.315.315A1.186,1.186,0,0,1,304.711,144.586Z" transform="translate(0 2.938)" fill="#1e365e"/>
        <path id="Path_3326" data-name="Path 3326" d="M307.705,143.631v1.261a.634.634,0,0,1-.631.644H297.01a5.338,5.338,0,0,0-.67-2.536h10.735A.623.623,0,0,1,307.705,143.631Z" transform="translate(9.395 4.853)" fill="#37a6de"/>
      </g>
    </g>
  </g>
</svg>
