<?xml version="1.0" encoding="utf-8"?>
<!-- Generator: Adobe Illustrator 24.3.0, SVG Export Plug-In . SVG Version: 6.00 Build 0)  -->
<svg version="1.1" id="Layer_3" xmlns="http://www.w3.org/2000/svg" xmlns:xlink="http://www.w3.org/1999/xlink" x="0px" y="0px"
	 viewBox="0 0 25 25" style="enable-background:new 0 0 25 25;" xml:space="preserve">
<style type="text/css">
	.st0{fill:#FFFFFF;}
</style>
<path class="st0" d="M12.5,1c6.3,0,11.4,5.2,11.4,11.5s-5.2,11.4-11.5,11.4S1,18.8,1,12.5S6.1,1,12.5,1z M2.2,11.9h4v-0.1
	c0.1-1.3,0.3-2.5,0.7-3.7C7,7.9,6.8,7.9,6.7,7.8C6.1,7.6,5.4,7.2,4.8,6.9C4.6,6.8,4.4,6.6,4.1,6.5C3,8.1,2.3,10,2.2,11.9z M20.9,6.5
	C20,7,19.1,7.4,18.3,7.9c-0.2,0.1-0.1,0.2-0.1,0.3c0.2,0.8,0.4,1.6,0.5,2.4c0.1,0.4,0.1,0.9,0.1,1.3h4C22.7,10,22.1,8.1,20.9,6.5z
	 M6.2,13.1h-4C2.3,15,2.9,16.9,4,18.5L6.8,17C6.4,15.7,6.2,14.4,6.2,13.1z M18.8,13.1c-0.1,1.3-0.3,2.7-0.7,3.9l2.8,1.5
	c1.1-1.6,1.8-3.5,1.9-5.4C22.8,13.1,18.8,13.1,18.8,13.1z M17.1,16.6c0.4-1.1,0.6-2.3,0.6-3.5h-4.6v2.8L17.1,16.6z M11.9,13.1H7.3
	c0,1.2,0.2,2.4,0.6,3.5l4-0.7C11.9,15.9,11.9,13.1,11.9,13.1z M13.1,9.1v2.8h4.6c0-1.2-0.3-2.4-0.6-3.5L13.1,9.1z M11.9,9.1l-4-0.7
	c-0.4,1.1-0.6,2.3-0.6,3.5h4.6V9.1z M8.3,17.7c0.8,1.9,2,3.6,3.6,5v-5.6C10.7,17.1,9.5,17.3,8.3,17.7z M13.1,22.7
	c1.6-1.4,2.8-3.1,3.6-5c-1.2-0.4-2.4-0.6-3.6-0.6C13.1,17.1,13.1,22.7,13.1,22.7z M11.9,2.4c-1.6,1.3-2.8,3-3.6,4.9
	c1.2,0.4,2.4,0.6,3.6,0.6V2.4z M13.1,2.4v5.5c1.2,0,2.4-0.3,3.6-0.6C15.9,5.4,14.6,3.7,13.1,2.4z M14.8,2.4c0.6,0.7,1.1,1.4,1.6,2.2
	c0.5,0.7,0.9,1.5,1.4,2.4l2.5-1.3C18.9,4.1,16.9,2.9,14.8,2.4z M4.8,5.6L7.3,7C8,5.3,9,3.8,10.2,2.5C8.1,2.9,6.2,4,4.8,5.6z M7.2,18
	l-2.4,1.3c1,1.4,4,3.1,5.3,3.2C8.9,21.2,7.9,19.7,7.2,18z M14.9,22.5c2.1-0.5,4-1.6,5.4-3.2L17.8,18C17.1,19.7,16.1,21.2,14.9,22.5z
	"/>
</svg>
