<svg xmlns="http://www.w3.org/2000/svg" width="100" height="100" viewBox="0 0 100 100">
  <g id="icon-wills-and-estates" transform="translate(-1270 -4274)">
    <circle id="Ellipse_118" data-name="Ellipse 118" cx="50" cy="50" r="50" transform="translate(1270 4274)" fill="#f6f8f9"/>
    <g id="Group_1021" data-name="Group 1021" transform="translate(1166.445 4139.247)">
      <g id="Group_1019" data-name="Group 1019" transform="translate(155.222 180.886)">
        <path id="Path_3278" data-name="Path 3278" d="M156.979,178.764l-.947-1.036-.425-1.337a.378.378,0,0,0-.312-.261l-1.388-.185-1.18-.749a.38.38,0,0,0-.412,0l-1.186.753-1.362.181a.379.379,0,0,0-.338.265l-.425,1.337-.945,1.036a.378.378,0,0,0-.07.4l.535,1.3-.058,1.4a.379.379,0,0,0,.2.35l1.242.649.841,1.092a.379.379,0,0,0,.4.159l1.371-.3,1.371.3a.38.38,0,0,0,.379-.139l.857-1.113,1.227-.642a.376.376,0,0,0,.217-.357l-.058-1.4.526-1.278a.379.379,0,0,0-.06-.418m-4.461,6.158-1.25.275a.965.965,0,0,1-1.032-.453l-.181,4.529,2.553-1.33,2.357,1.371-.238-4.474a.946.946,0,0,1-.958.357Z" transform="translate(-147.961 -175.132)" fill="#37a6de" fill-rule="evenodd"/>
      </g>
      <g id="Group_1020" data-name="Group 1020" transform="translate(128.555 159.753)">
        <path id="Path_3279" data-name="Path 3279" d="M172.762,159.753l-33.944.016a6.65,6.65,0,0,0-6.581,6.639v30.2h-2.555a1.128,1.128,0,0,0-1.127,1.127v5.358a6.66,6.66,0,0,0,6.645,6.659h27.2l.456-.017a6.648,6.648,0,0,0,6.579-6.639V171.22h8a1.129,1.129,0,0,0,1.127-1.128v-4.531A5.808,5.808,0,0,0,172.762,159.753Zm3.54,5.809v3.4h-6.868v-3.712a3.269,3.269,0,0,1,3.328-3.247A3.55,3.55,0,0,1,176.3,165.562Zm-19.464,31.048H134.491v-30.2a4.385,4.385,0,0,1,4.333-4.384l29.419-.017a5.5,5.5,0,0,0-1.065,3.246V203.1a4.4,4.4,0,0,1-4.374,4.384l-.452.018a4.4,4.4,0,0,1-4.386-4.406v-5.358A1.129,1.129,0,0,0,156.838,196.609Zm.54,10.89H135.2a4.4,4.4,0,0,1-4.39-4.406v-4.231h24.9v4.231A6.708,6.708,0,0,0,157.378,207.5Z" transform="translate(-128.555 -159.753)" fill="#1e365e"/>
        <path id="Path_3280" data-name="Path 3280" d="M137.622,169h20.234a.928.928,0,1,0,0-1.856H137.622a.928.928,0,0,0,0,1.856Z" transform="translate(-125.51 -156.987)" fill="#1e365e"/>
        <path id="Path_3281" data-name="Path 3281" d="M158.785,173.086a.929.929,0,0,0-.929-.928H137.622a.928.928,0,0,0,0,1.856h20.234A.93.93,0,0,0,158.785,173.086Z" transform="translate(-125.51 -155.112)" fill="#1e365e"/>
        <path id="Path_3282" data-name="Path 3282" d="M137.425,179.025h11.481a.954.954,0,0,0,0-1.855H137.425a.954.954,0,0,0,0,1.855Z" transform="translate(-125.51 -153.236)" fill="#1e365e"/>
        <path id="Path_3283" data-name="Path 3283" d="M151.1,182.18H137.473a.943.943,0,0,0,0,1.858H151.1a.943.943,0,0,0,0-1.858Z" transform="translate(-125.51 -151.362)" fill="#1e365e"/>
      </g>
    </g>
  </g>
</svg>
