<svg xmlns="http://www.w3.org/2000/svg" width="45.044" height="40" viewBox="0 0 45.044 40">
  <g id="icon-wfh" transform="translate(-418 -1798)">
    <g id="Group_986" data-name="Group 986" transform="translate(418 1798)">
      <path id="Path_3259" data-name="Path 3259" d="M29.665,34.579,24.747,30.62V22.77a.444.444,0,0,0-.444-.443H23.042a.443.443,0,0,0-.443.443v6.116L8.935,17.869a2.637,2.637,0,0,0-3.328,0l-20.73,16.71a.341.341,0,0,0-.125.23.346.346,0,0,0,.076.256l1.119,1.379a.349.349,0,0,0,.273.13.345.345,0,0,0,.221-.079l3.355-2.706V56.2A1.075,1.075,0,0,0-9.13,57.278H-1.1V55.13H-8.056V32.058L6.815,20.064a.708.708,0,0,1,.9,0l14.886,12V55.13H15.655v2.148h8.017A1.076,1.076,0,0,0,24.747,56.2V33.8l3.365,2.714a.351.351,0,0,0,.493-.051l1.114-1.375A.374.374,0,0,0,29.665,34.579Z" transform="translate(15.25 -17.278)" fill="#1e365e"/>
      <path id="Path_3260" data-name="Path 3260" d="M14.441,58.743V41.935a1.115,1.115,0,0,0-1.114-1.114H2.865a1.116,1.116,0,0,0-1.114,1.114v10.5H1.76v6.306ZM3.978,43.049h8.236V56.516H3.978Z" transform="translate(14.425 -18.743)" fill="#37a6de"/>
    </g>
  </g>
</svg>
