<svg xmlns="http://www.w3.org/2000/svg" width="42.979" height="40" viewBox="0 0 42.979 40">
  <g id="icon-no-servers" transform="translate(-75.437 -73.924)" opacity="0.997">
    <path id="Path_3251" data-name="Path 3251" d="M108.4,81.154a1.661,1.661,0,1,1,1.661-1.662A1.663,1.663,0,0,1,108.4,81.154Z" transform="translate(3.08 0.385)" fill="#37a6de"/>
    <path id="Path_3252" data-name="Path 3252" d="M103.673,81.154a1.661,1.661,0,1,1,1.661-1.662A1.663,1.663,0,0,1,103.673,81.154Z" transform="translate(2.615 0.385)" fill="#37a6de"/>
    <path id="Path_3253" data-name="Path 3253" d="M108.4,90.351a1.661,1.661,0,1,1,1.661-1.661A1.663,1.663,0,0,1,108.4,90.351Z" transform="translate(3.08 1.29)" fill="#37a6de"/>
    <path id="Path_3254" data-name="Path 3254" d="M103.673,90.351a1.661,1.661,0,1,1,1.661-1.661A1.663,1.663,0,0,1,103.673,90.351Z" transform="translate(2.615 1.29)" fill="#37a6de"/>
    <path id="Path_3255" data-name="Path 3255" d="M108.4,99.549a1.661,1.661,0,1,1,1.661-1.662A1.663,1.663,0,0,1,108.4,99.549Z" transform="translate(3.08 2.195)" fill="#37a6de"/>
    <path id="Path_3256" data-name="Path 3256" d="M103.673,99.549a1.661,1.661,0,1,1,1.661-1.662A1.663,1.663,0,0,1,103.673,99.549Z" transform="translate(2.615 2.195)" fill="#37a6de"/>
    <path id="Path_3257" data-name="Path 3257" d="M117.744,82.683V77.071a3.151,3.151,0,0,0-3.148-3.147H85.412a3.15,3.15,0,0,0-3.148,3.147v5.612a3.136,3.136,0,0,0,.8,2.1l.131.147-.131.147a3.14,3.14,0,0,0-.8,2.1v4.778a12.047,12.047,0,0,1,1.8-.266V87.173a1.344,1.344,0,0,1,1.343-1.342H114.6a1.344,1.344,0,0,1,1.342,1.342v5.612a1.344,1.344,0,0,1-1.342,1.343H92.279a12.123,12.123,0,0,1,1.908,1.806H114.6a1.343,1.343,0,0,1,1.342,1.341v5.613a1.344,1.344,0,0,1-1.342,1.342H97.023a12.209,12.209,0,0,1-.2,1.806H114.6a3.152,3.152,0,0,0,3.148-3.148V97.275a3.154,3.154,0,0,0-.8-2.1l-.132-.146.132-.146a3.146,3.146,0,0,0,.8-2.1V87.173a3.152,3.152,0,0,0-.8-2.1l-.132-.146.132-.147A3.143,3.143,0,0,0,117.744,82.683Zm-1.806,0a1.344,1.344,0,0,1-1.342,1.343H85.412a1.345,1.345,0,0,1-1.343-1.343V77.071a1.344,1.344,0,0,1,1.343-1.342H114.6a1.344,1.344,0,0,1,1.342,1.342Z" transform="translate(0.672)" fill="#1e365e"/>
    <path id="Path_3258" data-name="Path 3258" d="M85.624,112.165a10.187,10.187,0,1,1,10.188-10.187A10.2,10.2,0,0,1,85.624,112.165Zm0-18.177a7.99,7.99,0,1,0,7.991,7.99A8,8,0,0,0,85.624,93.989Z" transform="translate(0 1.759)" fill="#37a6de"/>
    <rect id="Rectangle_1520" data-name="Rectangle 1520" width="18.178" height="2.197" transform="translate(78.421 109.387) rotate(-45)" fill="#37a6de"/>
  </g>
</svg>
