<svg xmlns="http://www.w3.org/2000/svg" width="100" height="100" viewBox="0 0 100 100">
  <g id="icon-real-estate" transform="translate(-550 -4274)">
    <circle id="Ellipse_114" data-name="Ellipse 114" cx="50" cy="50" r="50" transform="translate(550 4274)" fill="#f6f8f9"/>
    <g id="Group_1015" data-name="Group 1015" transform="translate(587.25 4280.722)">
      <path id="Path_3273" data-name="Path 3273" d="M40.894,38.9l-6.147-4.949V24.143a.555.555,0,0,0-.555-.553H32.614a.554.554,0,0,0-.553.553v7.645L14.982,18.017a3.3,3.3,0,0,0-4.16,0L-15.091,38.9a.426.426,0,0,0-.157.287.432.432,0,0,0,.1.32l1.4,1.724a.436.436,0,0,0,.341.163.431.431,0,0,0,.276-.1l4.194-3.382V65.935A1.344,1.344,0,0,0-7.6,67.278H2.432V64.593h-8.69V35.753L12.331,20.76a.885.885,0,0,1,1.123,0l18.607,15V64.593h-8.68v2.685H33.4a1.345,1.345,0,0,0,1.343-1.343V37.928l4.206,3.392a.439.439,0,0,0,.616-.064l1.393-1.718A.467.467,0,0,0,40.894,38.9Z" transform="translate(0 0)" fill="#1e365e"/>
      <path id="Path_3274" data-name="Path 3274" d="M14.441,58.743V41.935a1.115,1.115,0,0,0-1.114-1.114H2.865a1.116,1.116,0,0,0-1.114,1.114v10.5H1.76v6.306ZM3.978,43.049h8.236V56.516H3.978Z" transform="translate(4.805 8.535)" fill="#37a6de"/>
    </g>
  </g>
</svg>
