<svg xmlns="http://www.w3.org/2000/svg" width="100" height="100" viewBox="0 0 100 100">
  <g id="icon-commercial-law" transform="translate(-1090 -4274)">
    <circle id="Ellipse_117" data-name="Ellipse 117" cx="50" cy="50" r="50" transform="translate(1090 4274)" fill="#f6f8f9"/>
    <g id="Group_1023" data-name="Group 1023" transform="translate(1031.73 4175.68)">
      <path id="Path_3284" data-name="Path 3284" d="M104.067,150.082H94.731a1.156,1.156,0,0,0-1.154,1.156v7.13h2.309v-5.975h7.025v5.975h2.31v-7.13A1.156,1.156,0,0,0,104.067,150.082Z" transform="translate(8.694 12.952)" fill="#37a6de"/>
      <g id="Group_1022" data-name="Group 1022" transform="translate(74.27 121.32)">
        <path id="Path_3285" data-name="Path 3285" d="M96.74,146.814H94.261a1.155,1.155,0,1,0,0,2.31H96.74a1.155,1.155,0,1,0,0-2.31Z" transform="translate(-65.788 -109.839)" fill="#1e365e"/>
        <path id="Path_3286" data-name="Path 3286" d="M102.135,146.814H99.653a1.155,1.155,0,0,0,0,2.31h2.482a1.155,1.155,0,0,0,0-2.31Z" transform="translate(-63.359 -109.839)" fill="#1e365e"/>
        <path id="Path_3287" data-name="Path 3287" d="M96.74,143.72H94.261a1.155,1.155,0,1,0,0,2.31H96.74a1.155,1.155,0,1,0,0-2.31Z" transform="translate(-65.788 -111.233)" fill="#1e365e"/>
        <path id="Path_3288" data-name="Path 3288" d="M102.135,143.72H99.653a1.155,1.155,0,0,0,0,2.31h2.482a1.155,1.155,0,0,0,0-2.31Z" transform="translate(-63.359 -111.233)" fill="#1e365e"/>
        <path id="Path_3289" data-name="Path 3289" d="M96.74,140.627H94.261a1.154,1.154,0,1,0,0,2.309H96.74a1.154,1.154,0,1,0,0-2.309Z" transform="translate(-65.788 -112.626)" fill="#1e365e"/>
        <path id="Path_3290" data-name="Path 3290" d="M102.135,140.627H99.653a1.154,1.154,0,1,0,0,2.309h2.482a1.154,1.154,0,1,0,0-2.309Z" transform="translate(-63.359 -112.626)" fill="#1e365e"/>
        <path id="Path_3291" data-name="Path 3291" d="M96.74,137.533H94.261a1.155,1.155,0,1,0,0,2.31H96.74a1.155,1.155,0,1,0,0-2.31Z" transform="translate(-65.788 -114.019)" fill="#1e365e"/>
        <path id="Path_3292" data-name="Path 3292" d="M102.135,137.533H99.653a1.155,1.155,0,0,0,0,2.31h2.482a1.155,1.155,0,0,0,0-2.31Z" transform="translate(-63.359 -114.019)" fill="#1e365e"/>
        <path id="Path_3293" data-name="Path 3293" d="M96.74,134.439H94.261a1.155,1.155,0,1,0,0,2.31H96.74a1.155,1.155,0,1,0,0-2.31Z" transform="translate(-65.788 -115.412)" fill="#1e365e"/>
        <path id="Path_3294" data-name="Path 3294" d="M102.135,134.439H99.653a1.155,1.155,0,0,0,0,2.31h2.482a1.155,1.155,0,0,0,0-2.31Z" transform="translate(-63.359 -115.412)" fill="#1e365e"/>
        <path id="Path_3295" data-name="Path 3295" d="M96.74,131.345H94.261a1.155,1.155,0,1,0,0,2.31H96.74a1.155,1.155,0,1,0,0-2.31Z" transform="translate(-65.788 -116.805)" fill="#1e365e"/>
        <path id="Path_3296" data-name="Path 3296" d="M102.135,131.345H99.653a1.155,1.155,0,0,0,0,2.31h2.482a1.155,1.155,0,0,0,0-2.31Z" transform="translate(-63.359 -116.805)" fill="#1e365e"/>
        <path id="Path_3297" data-name="Path 3297" d="M96.74,128.252H94.261a1.155,1.155,0,1,0,0,2.31H96.74a1.155,1.155,0,1,0,0-2.31Z" transform="translate(-65.788 -118.198)" fill="#1e365e"/>
        <path id="Path_3298" data-name="Path 3298" d="M102.135,128.252H99.653a1.155,1.155,0,0,0,0,2.31h2.482a1.155,1.155,0,0,0,0-2.31Z" transform="translate(-63.359 -118.198)" fill="#1e365e"/>
        <path id="Path_3299" data-name="Path 3299" d="M96.74,125.158H94.261a1.155,1.155,0,1,0,0,2.31H96.74a1.155,1.155,0,1,0,0-2.31Z" transform="translate(-65.788 -119.592)" fill="#1e365e"/>
        <path id="Path_3300" data-name="Path 3300" d="M102.135,125.158H99.653a1.155,1.155,0,0,0,0,2.31h2.482a1.155,1.155,0,0,0,0-2.31Z" transform="translate(-63.359 -119.592)" fill="#1e365e"/>
        <path id="Path_3301" data-name="Path 3301" d="M110.559,152.219H113.3a1.156,1.156,0,0,0,0-2.312h-2.741a1.156,1.156,0,0,0,0,2.312Z" transform="translate(-58.448 -108.447)" fill="#1e365e"/>
        <path id="Path_3302" data-name="Path 3302" d="M110.559,149.124H113.3a1.155,1.155,0,1,0,0-2.31h-2.741a1.155,1.155,0,0,0,0,2.31Z" transform="translate(-58.448 -109.839)" fill="#1e365e"/>
        <path id="Path_3303" data-name="Path 3303" d="M110.559,146.03H113.3a1.155,1.155,0,1,0,0-2.31h-2.741a1.155,1.155,0,0,0,0,2.31Z" transform="translate(-58.448 -111.233)" fill="#1e365e"/>
        <path id="Path_3304" data-name="Path 3304" d="M110.559,142.936H113.3a1.154,1.154,0,1,0,0-2.309h-2.741a1.154,1.154,0,1,0,0,2.309Z" transform="translate(-58.448 -112.626)" fill="#1e365e"/>
        <path id="Path_3305" data-name="Path 3305" d="M110.559,139.843H113.3a1.155,1.155,0,1,0,0-2.31h-2.741a1.155,1.155,0,0,0,0,2.31Z" transform="translate(-58.448 -114.019)" fill="#1e365e"/>
        <path id="Path_3306" data-name="Path 3306" d="M110.559,136.749H113.3a1.155,1.155,0,1,0,0-2.31h-2.741a1.155,1.155,0,0,0,0,2.31Z" transform="translate(-58.448 -115.412)" fill="#1e365e"/>
        <path id="Path_3307" data-name="Path 3307" d="M110.559,133.655H113.3a1.155,1.155,0,1,0,0-2.31h-2.741a1.155,1.155,0,0,0,0,2.31Z" transform="translate(-58.448 -116.805)" fill="#1e365e"/>
        <path id="Path_3308" data-name="Path 3308" d="M110.559,130.562H113.3a1.155,1.155,0,1,0,0-2.31h-2.741a1.155,1.155,0,0,0,0,2.31Z" transform="translate(-58.448 -118.198)" fill="#1e365e"/>
        <path id="Path_3309" data-name="Path 3309" d="M140.753,169.007h-2.915V128.035a1.161,1.161,0,0,0-1.16-1.146H120.216v-4.423a1.164,1.164,0,0,0-1.175-1.146H97.113a1.148,1.148,0,0,0-1.146,1.146v4.423H79.491a1.148,1.148,0,0,0-1.146,1.146v40.972h-2.93a1.151,1.151,0,0,0-1.146,1.16,1.139,1.139,0,0,0,1.146,1.146H98.287V123.626h19.594v47.687h22.872a1.139,1.139,0,0,0,1.146-1.146A1.151,1.151,0,0,0,140.753,169.007Zm-44.786,0H80.651V129.2H95.967Zm39.55,0h-15.3V129.2h15.3Z" transform="translate(-74.27 -121.32)" fill="#1e365e"/>
        <path id="Path_3310" data-name="Path 3310" d="M83.24,152.219h2.74a1.156,1.156,0,0,0,0-2.312H83.24a1.156,1.156,0,0,0,0,2.312Z" transform="translate(-70.751 -108.447)" fill="#1e365e"/>
        <path id="Path_3311" data-name="Path 3311" d="M83.24,149.124h2.74a1.155,1.155,0,1,0,0-2.31H83.24a1.155,1.155,0,1,0,0,2.31Z" transform="translate(-70.751 -109.839)" fill="#1e365e"/>
        <path id="Path_3312" data-name="Path 3312" d="M83.24,146.03h2.74a1.155,1.155,0,1,0,0-2.31H83.24a1.155,1.155,0,1,0,0,2.31Z" transform="translate(-70.751 -111.233)" fill="#1e365e"/>
        <path id="Path_3313" data-name="Path 3313" d="M83.24,142.936h2.74a1.154,1.154,0,1,0,0-2.309H83.24a1.154,1.154,0,1,0,0,2.309Z" transform="translate(-70.751 -112.626)" fill="#1e365e"/>
        <path id="Path_3314" data-name="Path 3314" d="M83.24,139.843h2.74a1.155,1.155,0,1,0,0-2.31H83.24a1.155,1.155,0,1,0,0,2.31Z" transform="translate(-70.751 -114.019)" fill="#1e365e"/>
        <path id="Path_3315" data-name="Path 3315" d="M83.24,136.749h2.74a1.155,1.155,0,1,0,0-2.31H83.24a1.155,1.155,0,1,0,0,2.31Z" transform="translate(-70.751 -115.412)" fill="#1e365e"/>
        <path id="Path_3316" data-name="Path 3316" d="M83.24,133.655h2.74a1.155,1.155,0,1,0,0-2.31H83.24a1.155,1.155,0,1,0,0,2.31Z" transform="translate(-70.751 -116.805)" fill="#1e365e"/>
        <path id="Path_3317" data-name="Path 3317" d="M83.24,130.562h2.74a1.155,1.155,0,1,0,0-2.31H83.24a1.155,1.155,0,1,0,0,2.31Z" transform="translate(-70.751 -118.198)" fill="#1e365e"/>
      </g>
    </g>
  </g>
</svg>
