<svg xmlns="http://www.w3.org/2000/svg" width="100" height="100" viewBox="0 0 100 100">
  <g id="icon-family-law" transform="translate(-730 -4274)">
    <circle id="Ellipse_115" data-name="Ellipse 115" cx="50" cy="50" r="50" transform="translate(730 4274)" fill="#f6f8f9"/>
    <g id="Group_1011" data-name="Group 1011" transform="translate(575.571 4179.436)">
      <g id="Group_1009" data-name="Group 1009" transform="translate(182.463 119.564)">
        <path id="Path_3261" data-name="Path 3261" d="M186.26,119.564a5.195,5.195,0,1,0,5.195,5.195A5.2,5.2,0,0,0,186.26,119.564Z" transform="translate(-181.065 -119.564)" fill="#37a6de"/>
        <path id="Path_3262" data-name="Path 3262" d="M210.272,121.5a5.171,5.171,0,1,0,5.171,5.171A5.177,5.177,0,0,0,210.272,121.5Z" transform="translate(-171.822 -118.818)" fill="#37a6de"/>
        <path id="Path_3263" data-name="Path 3263" d="M197.822,136.628a4.023,4.023,0,1,0,4.023,4.023A4.029,4.029,0,0,0,197.822,136.628Z" transform="translate(-176.169 -113.002)" fill="#37a6de"/>
      </g>
      <g id="Group_1010" data-name="Group 1010" transform="translate(177.429 132.674)">
        <path id="Path_3264" data-name="Path 3264" d="M197.7,144.154a1.307,1.307,0,0,0,.148-1l-2.858-11.414a3.57,3.57,0,0,0-3.47-2.708H185.66a6.006,6.006,0,0,0-5.811,4.642l-2.4,16.259a1.3,1.3,0,0,0,.245.979,1.322,1.322,0,0,0,.874.522l.186.01a1.322,1.322,0,0,0,1.3-1.124l2.38-16.133a3.324,3.324,0,0,1,3.229-2.52h5.861a.94.94,0,0,1,.912.713l2.855,11.406.058.151a1.309,1.309,0,0,0,2.352.216Z" transform="translate(-177.429 -129.033)" fill="#1e365e"/>
        <path id="Path_3265" data-name="Path 3265" d="M183.158,142.628a1.318,1.318,0,0,0-1.317,1.318v15.036a1.318,1.318,0,1,0,2.636,0V143.946A1.32,1.32,0,0,0,183.158,142.628Z" transform="translate(-175.733 -123.805)" fill="#1e365e"/>
        <path id="Path_3266" data-name="Path 3266" d="M187.207,142.628a1.319,1.319,0,0,0-1.318,1.318v15.036a1.318,1.318,0,0,0,2.636,0V143.947a1.316,1.316,0,0,0-1.318-1.319Z" transform="translate(-174.176 -123.805)" fill="#1e365e"/>
        <path id="Path_3267" data-name="Path 3267" d="M219.461,134.509a5.954,5.954,0,0,0-5.785-4.515h-4a5.93,5.93,0,0,0-5.774,4.468l-2.4,8.277a1.314,1.314,0,0,0,2.5.8l2.447-8.386a3.325,3.325,0,0,1,3.229-2.52h4a3.283,3.283,0,0,1,3.207,2.41l2.4,14.931a1.312,1.312,0,0,0,1.3,1.1l.21-.015a1.32,1.32,0,0,0,1.092-1.512Z" transform="translate(-168.193 -128.663)" fill="#1e365e"/>
        <path id="Path_3268" data-name="Path 3268" d="M211.226,142.628a1.317,1.317,0,0,0-1.317,1.318v15.036a1.317,1.317,0,1,0,2.635,0V143.946A1.319,1.319,0,0,0,211.226,142.628Z" transform="translate(-164.939 -123.805)" fill="#1e365e"/>
        <path id="Path_3269" data-name="Path 3269" d="M207.178,142.628a1.319,1.319,0,0,0-1.318,1.318v15.036a1.318,1.318,0,0,0,2.636,0V143.946A1.319,1.319,0,0,0,207.178,142.628Z" transform="translate(-166.496 -123.805)" fill="#1e365e"/>
        <path id="Path_3270" data-name="Path 3270" d="M205.378,142.478a1.318,1.318,0,0,0-1.746.654l-1.638,3.6a2.652,2.652,0,0,1-1.875.55h-2.725a2.665,2.665,0,0,1-1.872-.547l-1.639-3.6a1.318,1.318,0,0,0-2.434.084,1.3,1.3,0,0,0,.035,1.008l1.638,3.6c.58,1.271,2.257,2.092,4.273,2.092h2.725c2.016,0,3.693-.821,4.271-2.092l1.639-3.6a1.316,1.316,0,0,0-.652-1.746Z" transform="translate(-172.071 -123.909)" fill="#1e365e"/>
        <path id="Path_3271" data-name="Path 3271" d="M195.69,148.663a1.317,1.317,0,0,0-1.317,1.317v7.076a1.317,1.317,0,1,0,2.635,0v-7.075a1.314,1.314,0,0,0-1.318-1.318Z" transform="translate(-170.914 -121.484)" fill="#1e365e"/>
        <path id="Path_3272" data-name="Path 3272" d="M198.451,148.663a1.319,1.319,0,0,0-1.319,1.317v7.076a1.319,1.319,0,0,0,2.638,0V149.98A1.318,1.318,0,0,0,198.451,148.663Z" transform="translate(-169.853 -121.484)" fill="#1e365e"/>
      </g>
    </g>
  </g>
</svg>
