<svg id="logo-leap-secondary" xmlns="http://www.w3.org/2000/svg" width="140.345" height="29.587" viewBox="0 0 140.345 29.587">
  <path id="Path_1018" data-name="Path 1018" d="M130.522,0V29.587H151.9l-2.457-5.918H136.257V0Z" transform="translate(-91.904)" fill="#f69139"/>
  <path id="Path_1019" data-name="Path 1019" d="M410.2,17.75h-8.605l-.1,11.838h-5.736V0h14.341C421.885,0,422.03,17.75,410.2,17.75Zm-8.605-5.894,8.605-.025a2.964,2.964,0,1,0-.1-5.914H401.58Z" transform="translate(-278.659)" fill="#f69139"/>
  <path id="Path_1020" data-name="Path 1020" d="M229.578,5.916V0H206.806V29.587h22.772V23.669H212.5V17.75h11.39V11.83H212.5V5.916Z" transform="translate(-145.617)" fill="#f69139"/>
  <path id="Subtraction_17" data-name="Subtraction 17" d="M10238-9543h-29v-29h29v29Zm-13.95-23.554-2.43,6.793-.737,2.063-8.726,8.914,11.845-5.5,2.048-3.9-4.42-1.576,9.644,1.433,1.521,8.1,1.413-11.706Z" transform="translate(-10209 9572.471)" fill="#f79239"/>
  <path id="Path_1023" data-name="Path 1023" d="M312.353,29.587H318.6L306.351,0h-6.307L287.791,29.587h6.251l2.45-5.918H309.9ZM298.945,17.75,303.2,7.481,307.45,17.75Z" transform="translate(-202.641)" fill="#f69139"/>
</svg>
