<svg xmlns="http://www.w3.org/2000/svg" xmlns:xlink="http://www.w3.org/1999/xlink" width="234" height="40" viewBox="0 0 234 40">
  <defs>
    <clipPath id="clip-path">
      <rect id="Rectangle_1551" data-name="Rectangle 1551" width="233.975" height="30"/>
    </clipPath>
  </defs>
  <g id="logo-pcltm" transform="translate(-486 -1559)">
    <g id="logo-primary-rgb-pclaw-time-matters" transform="translate(486 1564)" clip-path="url(#clip-path)">
      <g id="Logo-primary-RGB_PCLawTimeMatters">
        <rect id="Rectangle_25" data-name="Rectangle 25" width="1.261" height="30" transform="translate(80.444)"/>
        <g id="Group_52" data-name="Group 52" transform="translate(0 5.889)">
          <path id="Path_106" data-name="Path 106" d="M464.722,61.391H458.8v-2.1h14.266v2.1h-5.922V76.562h-2.423Z" transform="translate(-371.754 -58.96)" fill="#e42a31"/>
          <g id="Group_51" data-name="Group 51">
            <g id="Group_49" data-name="Group 49">
              <path id="Path_107" data-name="Path 107" d="M58.115,59.137h6.313a5.157,5.157,0,0,1,5.433,5.408,5.216,5.216,0,0,1-5.433,5.481H60.538v6.387H58.115Zm5.922,8.785a3.117,3.117,0,0,0,3.352-3.377,3.054,3.054,0,0,0-3.328-3.3H60.538v6.68Z" transform="translate(-58.115 -58.843)" fill="#e42a31"/>
              <path id="Path_108" data-name="Path 108" d="M129.867,57.785a8.893,8.893,0,0,1,6.289,2.276l-1.2,1.812a7.882,7.882,0,0,0-4.992-1.884,6.28,6.28,0,0,0-6.387,6.608c0,3.7,2.569,6.827,6.411,6.827a7.818,7.818,0,0,0,5.335-2.251l1.3,1.738a9.263,9.263,0,0,1-6.7,2.741,8.933,8.933,0,0,1-.049-17.865Z" transform="translate(-107.404 -57.785)" fill="#e42a31"/>
              <path id="Path_109" data-name="Path 109" d="M207.806,59.137h2.422V74.309h7.733v2.1H207.806Z" transform="translate(-175.287 -58.843)" fill="#e42a31"/>
              <path id="Path_110" data-name="Path 110" d="M267.979,85.255h.538v-.22a2.406,2.406,0,0,0-2.716-2.716,6.28,6.28,0,0,0-3.451,1.2l-.979-1.737A7.768,7.768,0,0,1,266,80.312c3.132,0,4.894,1.713,4.894,4.845v7.831h-2.2V91.813a9.293,9.293,0,0,1,.049-.979h-.049a4.284,4.284,0,0,1-3.964,2.447c-2.129,0-4.21-1.3-4.21-3.768C260.516,85.426,265.9,85.255,267.979,85.255Zm-2.741,6.118c2.007,0,3.3-2.1,3.3-3.94v-.392h-.612c-1.786,0-5.016.122-5.016,2.349a2.075,2.075,0,0,0,2.325,1.982Z" transform="translate(-216.545 -75.418)" fill="#e42a31"/>
              <path id="Path_111" data-name="Path 111" d="M314.671,81.665h2.52l2.57,8.687c.2.636.293,1.322.318,1.322h.049a12.876,12.876,0,0,1,.318-1.322l2.691-8.663h2.178l2.667,8.663c.2.636.343,1.322.343,1.322h.049a9.975,9.975,0,0,1,.293-1.322l2.594-8.687h2.5l-3.989,12.382h-2.618l-2.569-7.953c-.2-.636-.343-1.346-.343-1.346h-.049s-.147.71-.343,1.346L321.3,94.047H318.66Z" transform="translate(-258.936 -76.477)" fill="#e42a31"/>
            </g>
            <rect id="Rectangle_26" data-name="Rectangle 26" width="2.398" height="2.423" rx="1.199" transform="translate(103.269 0.326)" fill="#e42a31"/>
            <rect id="Rectangle_27" data-name="Rectangle 27" width="2.374" height="12.382" transform="translate(103.294 5.22)" fill="#e42a31"/>
            <path id="Path_112" data-name="Path 112" d="M559.635,80.754h2.3v1.639a8.711,8.711,0,0,1-.049.905h.049a4.838,4.838,0,0,1,4.258-2.839,3.38,3.38,0,0,1,3.72,2.814h.049a4.986,4.986,0,0,1,4.4-2.814c2.789,0,4.086,1.59,4.086,4.747v7.928h-2.373V85.722c0-1.738-.343-3.108-2.2-3.108a3.858,3.858,0,0,0-3.475,3.157,7.389,7.389,0,0,0-.171,1.713v5.652h-2.374V85.722c0-1.615-.245-3.108-2.153-3.108-1.812,0-3.083,1.493-3.548,3.254a6.846,6.846,0,0,0-.147,1.615v5.652h-2.374Z" transform="translate(-450.683 -75.534)" fill="#e42a31"/>
            <path id="Path_113" data-name="Path 113" d="M664.832,80.464c3.5,0,5.359,2.594,5.359,5.8,0,.318-.073,1.028-.073,1.028h-9.029a4.047,4.047,0,0,0,4.258,4.086,5.9,5.9,0,0,0,3.671-1.444L670,91.672a7.372,7.372,0,0,1-4.8,1.762,6.305,6.305,0,0,1-6.558-6.485C658.641,83.009,661.308,80.464,664.832,80.464Zm2.937,5.041a2.922,2.922,0,0,0-2.985-3.157,3.547,3.547,0,0,0-3.621,3.157Z" transform="translate(-528.181 -75.537)" fill="#e42a31"/>
            <path id="Path_114" data-name="Path 114" d="M742.264,59.287h2.544l3.964,9.348c.392.954.857,2.325.857,2.325h.049s.466-1.37.857-2.325l3.964-9.348h2.545l1.395,17.276h-2.4l-.856-10.889c-.073-1.052-.025-2.545-.025-2.545h-.049s-.514,1.591-.93,2.545l-3.451,7.781h-2.152l-3.426-7.781c-.391-.93-.93-2.594-.93-2.594h-.049s.024,1.542-.049,2.594l-.832,10.889h-2.422Z" transform="translate(-592.545 -58.961)" fill="#e42a31"/>
            <path id="Path_115" data-name="Path 115" d="M841.479,85.405h.538v-.22a2.406,2.406,0,0,0-2.716-2.716,6.28,6.28,0,0,0-3.451,1.2l-.979-1.737a7.767,7.767,0,0,1,4.625-1.468c3.132,0,4.894,1.713,4.894,4.845v7.831h-2.2V91.963a9.277,9.277,0,0,1,.049-.979h-.049a4.283,4.283,0,0,1-3.964,2.447c-2.129,0-4.21-1.3-4.21-3.768C834.016,85.576,839.4,85.405,841.479,85.405Zm-2.741,6.118c2.007,0,3.3-2.1,3.3-3.94v-.392h-.611c-1.786,0-5.016.122-5.016,2.349A2.074,2.074,0,0,0,838.738,91.523Z" transform="translate(-665.456 -75.535)" fill="#e42a31"/>
            <path id="Path_116" data-name="Path 116" d="M894.316,71.639H892.7V69.731h1.688V66.158h2.3v3.573h2.985v1.909h-2.985v5.506a2.46,2.46,0,0,0,2.643,2.79,2.862,2.862,0,0,0,.563-.049v2.1a6.516,6.516,0,0,1-.832.049c-1.591,0-4.747-.489-4.747-4.625Z" transform="translate(-711.392 -64.339)" fill="#e42a31"/>
            <path id="Path_117" data-name="Path 117" d="M934.641,71.639h-1.615V69.731h1.688V66.158h2.3v3.573H940v1.909h-2.985v5.506a2.46,2.46,0,0,0,2.643,2.79,2.862,2.862,0,0,0,.563-.049v2.1a6.516,6.516,0,0,1-.832.049c-1.59,0-4.747-.489-4.747-4.625Z" transform="translate(-742.957 -64.339)" fill="#e42a31"/>
            <path id="Path_118" data-name="Path 118" d="M980.665,80.464c3.5,0,5.359,2.594,5.359,5.8,0,.318-.073,1.028-.073,1.028h-9.029a4.047,4.047,0,0,0,4.258,4.086,5.9,5.9,0,0,0,3.671-1.444l.979,1.737a7.371,7.371,0,0,1-4.8,1.762,6.305,6.305,0,0,1-6.558-6.485C974.474,83.009,977.141,80.464,980.665,80.464ZM983.6,85.5a2.922,2.922,0,0,0-2.985-3.157,3.547,3.547,0,0,0-3.622,3.157Z" transform="translate(-775.401 -75.537)" fill="#e42a31"/>
            <path id="Path_119" data-name="Path 119" d="M1040.928,81.287h2.3V83.44a8.9,8.9,0,0,1-.049.93h.049a3.976,3.976,0,0,1,4.527-3.181v2.349a3.416,3.416,0,0,0-.685-.074,3.756,3.756,0,0,0-3.475,2.912,7.513,7.513,0,0,0-.293,2.227v5.065h-2.374Z" transform="translate(-827.418 -76.066)" fill="#e42a31"/>
            <path id="Path_120" data-name="Path 120" d="M1079.7,89.934a5.314,5.314,0,0,0,3.548,1.444c1.028,0,2.055-.538,2.055-1.542,0-2.276-6.362-1.811-6.362-5.849,0-2.251,2.006-3.523,4.478-3.523a5.566,5.566,0,0,1,3.989,1.37l-.954,1.786a4.531,4.531,0,0,0-3.059-1.1c-1.028,0-2.031.44-2.031,1.517,0,2.227,6.362,1.737,6.362,5.8,0,2.055-1.762,3.6-4.478,3.6a6.655,6.655,0,0,1-4.7-1.811Z" transform="translate(-856.864 -75.537)" fill="#e42a31"/>
            <g id="Group_50" data-name="Group 50" transform="translate(230.311 1.779)">
              <path id="Path_121" data-name="Path 121" d="M1118.873,66.261h-.607v-.289h1.55v.289h-.607v1.561h-.336Z" transform="translate(-1118.266 -65.972)" fill="#e42a31"/>
              <path id="Path_122" data-name="Path 122" d="M1126.383,65.972h.359l.362.914c.042.11.094.271.094.271h.005s.049-.162.091-.271l.362-.914h.359l.149,1.85h-.334l-.078-1.035c-.008-.122,0-.287,0-.287h-.005s-.055.18-.1.287l-.3.716h-.294l-.3-.715c-.045-.107-.1-.289-.1-.289h-.005s.005.167,0,.289l-.078,1.035h-.336Z" transform="translate(-1124.501 -65.972)" fill="#e42a31"/>
            </g>
          </g>
        </g>
      </g>
    </g>
    <rect id="Rectangle_1559" data-name="Rectangle 1559" width="234" height="40" transform="translate(486 1559)" fill="none"/>
  </g>
</svg>
