<svg id="Layer_1" data-name="Layer 1" xmlns="http://www.w3.org/2000/svg" viewBox="0 0 474.34 100"><defs><style>.cls-1{fill:#f69139}.cls-2{fill:#1e365e}</style></defs><title>leap-logo</title><path class="cls-1" d="M130.52 0v100h72.26l-8.3-20h-44.57V0h-19.39zm314.05 60h-29.08l-.35 40h-19.39V0h48.47c39.85 0 40.35 60 .35 60zm-29.08-19.93l29.08-.07c14.33 0 13.84-20-.35-20h-28.77zM283.77 20V0h-76.96v100h76.96V80h-57.72V59.99h38.5V39.98h-38.5V20h57.72z"/><path class="cls-2" d="M0 0h100v100H0z"/><path class="cls-1" d="M42.66 42.95l32.62 4.86 5.14 27.39 4.78-39.57L50.87 20l-8.21 22.95z"/><path class="cls-1" d="M42.66 42.95l-2.49 6.98-29.5 30.13 40.04-18.58 6.92-13.18-14.97-5.35zM370.81 100h21.13L350.52 0h-21.31l-41.42 100h21.13l8.28-20h45.32zm-45.32-40l14.37-34.71L354.24 60z"/></svg>