<svg id="Group_332" data-name="Group 332" xmlns="http://www.w3.org/2000/svg" width="154.734" height="58.025" viewBox="0 0 154.734 58.025">
  <path id="path14" d="M136.493-186.493l-8.993-3V-202.5l9,2.668-.011,13.339" transform="translate(-93.485 206.502)" fill="#f68d11"/>
  <path id="path16" d="M170-199.832l9-2.668-.031,13L170-186.493v-13.339" transform="translate(-124.647 206.502)" fill="#f68d11"/>
  <path id="path18" d="M151.049-214.907l-8.392-2.593-8.282,2.593,8.294,2.223,8.38-2.223" transform="translate(-98.526 217.5)" fill="#f68d11"/>
  <path id="path20" d="M221.493-186.493l-8.993-3V-202.5l9,2.668-.011,13.339" transform="translate(-155.809 206.502)" fill="#f68d11"/>
  <path id="path22" d="M255-199.832l9-2.668-.031,13L255-186.493v-13.339" transform="translate(-186.97 206.502)" fill="#f68d11"/>
  <path id="path24" d="M236.049-214.907l-8.392-2.593-8.282,2.593,8.294,2.223,8.38-2.223" transform="translate(-160.849 217.5)" fill="#f68d11"/>
  <path id="path26" d="M9-128.582,0-131.25v13.006l8.993,3L9-128.582" transform="translate(0 154.26)" fill="#f68d11"/>
  <path id="path28" d="M42.5-128.582l9-2.668-.031,13-8.973,3.01v-13.339" transform="translate(-31.162 154.26)" fill="#f68d11"/>
  <path id="path30" d="M23.549-143.657l-8.392-2.593-8.282,2.593,8.294,2.223,8.38-2.223" transform="translate(-5.041 165.258)" fill="#f68d11"/>
  <path id="path32" d="M93.993-115.243l-8.993-3V-131.25l9,2.668-.011,13.339" transform="translate(-62.323 154.26)" fill="#f68d11"/>
  <path id="path34" d="M127.5-128.582l9-2.668-.031,13-8.973,3.01v-13.339" transform="translate(-93.485 154.26)" fill="#f68d11"/>
  <path id="path36" d="M108.549-143.657l-8.392-2.593-8.282,2.593,8.294,2.223,8.38-2.223" transform="translate(-67.364 165.258)" fill="#f68d11"/>
  <path id="path38" d="M51.493-43.993l-8.993-3V-60l9,2.668-.011,13.339" transform="translate(-31.162 102.018)" fill="#f68d11"/>
  <path id="path40" d="M85-57.332,94-60l-.031,13L85-43.993V-57.332" transform="translate(-62.323 102.018)" fill="#f68d11"/>
  <path id="path42" d="M66.049-72.407,57.657-75l-8.282,2.593,8.294,2.223,8.38-2.223" transform="translate(-36.203 113.017)" fill="#f68d11"/>
  <path id="path44" d="M189.552-43.094l-.662,0a.675.675,0,0,0-.628.43l-2.007,7.071-1.985-7.056a.594.594,0,0,0-.552-.445h-.783a.587.587,0,0,0-.545.45l-1.847,6.983-1.908-7a.7.7,0,0,0-.641-.428l-.952,0a.61.61,0,0,0-.494.228.328.328,0,0,0-.056.3l2.948,10.436a.58.58,0,0,0,.533.441h.947a.573.573,0,0,0,.545-.451l1.814-6.952,1.975,6.96a.578.578,0,0,0,.53.443h.931a.56.56,0,0,0,.541-.444l2.838-10.429a.339.339,0,0,0-.054-.306.6.6,0,0,0-.488-.224" transform="translate(-129.396 89.622)" fill="#100f0d"/>
  <path id="path46" d="M235.967-38.868h-5a2.932,2.932,0,0,1,2.57-2.915C235.179-41.729,235.93-40.307,235.967-38.868Zm-2.435-4.506c-3.378,0-4.917,2.987-4.917,5.762,0,3.463,1.913,5.7,4.873,5.7a4.46,4.46,0,0,0,4.431-2.941.4.4,0,0,0-.033-.327.552.552,0,0,0-.365-.257l-.938-.179a.625.625,0,0,0-.636.326,2.562,2.562,0,0,1-2.328,1.659,2.7,2.7,0,0,1-2.345-1.517,4.959,4.959,0,0,1-.4-2.172l6.79,0a.567.567,0,0,0,.394-.168.43.43,0,0,0,.133-.3c-.017-2.7-1.25-5.58-4.661-5.58" transform="translate(-167.624 89.828)" fill="#100f0d"/>
  <path id="path48" d="M276.749-47.346c0,.639-.116,3.829-2.382,3.911a2.529,2.529,0,0,1-1.956-1.136,4.277,4.277,0,0,1-.548-2.044v-1.877c.037-1.438,1.049-3.016,2.5-3.077C276.634-51.479,276.749-48.036,276.749-47.346Zm-2.027-5.875h-.18a3.111,3.111,0,0,0-2.68,1.421v-4.4a.527.527,0,0,0-.537-.472h-.976a.533.533,0,0,0-.541.472v13.734a.53.53,0,0,0,.538.476l.287,0a.584.584,0,0,0,.529-.421l.306-.969a3.59,3.59,0,0,0,2.922,1.6h.175c3.013,0,4.362-2.931,4.362-5.835a7.194,7.194,0,0,0-.978-3.792,3.9,3.9,0,0,0-3.225-1.812" transform="translate(-197.827 99.578)" fill="#100f0d"/>
  <path id="path50" d="M322.774-37.844a5.383,5.383,0,0,0-2.163-.761l-1.466-.272c-1.052-.173-1.661-.455-1.661-1.384,0-.981,1.017-1.357,1.879-1.38a2.366,2.366,0,0,1,2.23,1.323.569.569,0,0,0,.5.326A.511.511,0,0,0,322.2-40l.915-.2a.568.568,0,0,0,.363-.268.392.392,0,0,0,.037-.324c-.56-1.631-1.981-2.493-4.132-2.493-1.943,0-4.02.868-4.02,3.282,0,1.649,1.036,2.7,3.083,3.114l1.641.313c.9.172,1.822.479,1.822,1.447,0,1.432-1.667,1.578-2.171,1.589a2.766,2.766,0,0,1-2.721-1.6.545.545,0,0,0-.617-.347l-.957.2a.553.553,0,0,0-.353.251.419.419,0,0,0-.053.331c.494,1.772,2.2,2.84,4.575,2.858h.053c2.118,0,4.38-.907,4.38-3.45a3.071,3.071,0,0,0-1.278-2.54" transform="translate(-230.985 89.767)" fill="#100f0d"/>
  <path id="path52" d="M360.133-38.831h-5a2.928,2.928,0,0,1,2.57-2.914C359.342-41.693,360.095-40.271,360.133-38.831ZM357.7-43.337c-3.379,0-4.918,2.987-4.918,5.762,0,3.463,1.913,5.7,4.874,5.7a4.462,4.462,0,0,0,4.432-2.94.4.4,0,0,0-.033-.328.55.55,0,0,0-.365-.256l-.939-.179a.615.615,0,0,0-.634.326,2.566,2.566,0,0,1-2.328,1.66,2.7,2.7,0,0,1-2.344-1.517,4.935,4.935,0,0,1-.4-2.173l6.789,0a.566.566,0,0,0,.392-.167.43.43,0,0,0,.134-.306c-.016-2.7-1.248-5.58-4.659-5.58" transform="translate(-258.663 89.801)" fill="#100f0d"/>
  <path id="path54" d="M398.972-42.921a3.5,3.5,0,0,0-.383-.022,3.027,3.027,0,0,0-2.707,1.8l0-1.037a.522.522,0,0,0-.536-.472H394.5a.518.518,0,0,0-.526.476V-32.1a.515.515,0,0,0,.526.475h.99a.541.541,0,0,0,.549-.474v-5.076a4.246,4.246,0,0,1,.478-2.214,2.66,2.66,0,0,1,2.439-1.592.518.518,0,0,0,.5-.5v-.942a.526.526,0,0,0-.486-.493" transform="translate(-288.867 89.511)" fill="#100f0d"/>
  <path id="path56" d="M427.3-43.6h-.781a.7.7,0,0,0-.635.434l-2.533,7.96-2.586-7.952a.7.7,0,0,0-.637-.441h-1.116a.63.63,0,0,0-.5.232.327.327,0,0,0-.053.3l3.54,10.5a.6.6,0,0,0,.534.451h1.35a.584.584,0,0,0,.544-.451l3.434-10.5a.327.327,0,0,0-.052-.3.63.63,0,0,0-.5-.235" transform="translate(-306.803 89.997)" fill="#100f0d"/>
  <path id="path58" d="M457.686-58.732a1.308,1.308,0,0,0-1.3,1.309,1.308,1.308,0,0,0,1.3,1.309,1.309,1.309,0,0,0,1.306-1.309,1.309,1.309,0,0,0-1.306-1.309" transform="translate(-334.626 101.089)" fill="#100f0d"/>
  <path id="path60" d="M458.8-43.845h-1.071a.55.55,0,0,0-.557.494l-.005,10.691a.467.467,0,0,0,.182.353.6.6,0,0,0,.376.137l1.079,0h0a.544.544,0,0,0,.556-.491V-43.352a.544.544,0,0,0-.56-.493" transform="translate(-335.199 90.174)" fill="#100f0d"/>
  <path id="path62" d="M478.473-36.147l-.895,0a.578.578,0,0,0-.552.411c-.327,1.41-1.067,2.141-2.19,2.173-2.186-.065-2.356-3.112-2.356-4.045,0-1.859.644-3.866,2.442-3.919a2.255,2.255,0,0,1,2.111,2.079.586.586,0,0,0,.515.489l.957.009a.54.54,0,0,0,.509-.516,4.068,4.068,0,0,0-4.048-3.772l-.073,0-.083,0c-3.086,0-4.468,2.88-4.468,5.734,0,2.617,1.165,5.673,4.45,5.673h.157c2.069,0,3.63-1.45,4.078-3.8a.422.422,0,0,0-.108-.315.633.633,0,0,0-.446-.2" transform="translate(-344.862 89.726)" fill="#100f0d"/>
  <path id="path64" d="M513.733-38.831h-5a2.928,2.928,0,0,1,2.571-2.914C512.944-41.693,513.7-40.271,513.733-38.831ZM511.3-43.337c-3.379,0-4.917,2.987-4.917,5.762,0,3.463,1.913,5.7,4.874,5.7a4.462,4.462,0,0,0,4.431-2.94.4.4,0,0,0-.034-.328.546.546,0,0,0-.365-.256l-.938-.179a.614.614,0,0,0-.634.326,2.571,2.571,0,0,1-2.329,1.66,2.7,2.7,0,0,1-2.344-1.518,4.941,4.941,0,0,1-.4-2.173h6.79a.568.568,0,0,0,.395-.169.431.431,0,0,0,.132-.3c-.016-2.7-1.248-5.58-4.66-5.58" transform="translate(-371.286 89.801)" fill="#100f0d"/>
  <path id="path66" d="M552.878-37.844a5.388,5.388,0,0,0-2.164-.761l-1.466-.272c-1.051-.173-1.66-.455-1.66-1.384,0-1.266,1.571-1.372,1.877-1.38a2.365,2.365,0,0,1,2.23,1.323.572.572,0,0,0,.506.325A.52.52,0,0,0,552.31-40l.914-.2a.568.568,0,0,0,.363-.269.393.393,0,0,0,.037-.324c-.559-1.631-1.981-2.493-4.133-2.493-1.942,0-4.018.868-4.018,3.282,0,1.65,1.036,2.7,3.082,3.114l1.642.313c.9.172,1.822.479,1.822,1.447,0,1.432-1.667,1.578-2.171,1.589-1.048-.022-2.39-.455-2.721-1.6a.544.544,0,0,0-.62-.348l-.955.2a.556.556,0,0,0-.354.252.417.417,0,0,0-.052.33c.492,1.772,2.2,2.84,4.574,2.858h.053c2.118,0,4.381-.907,4.381-3.45a3.069,3.069,0,0,0-1.277-2.54" transform="translate(-399.701 89.767)" fill="#100f0d"/>
  <path id="path68" d="M409.189-129.361v-2.428a.6.6,0,0,1,.616-.615h10.876a.607.607,0,0,1,.627.613v2.082a3.423,3.423,0,0,1-.819,1.528l-5.633,8.044a12.056,12.056,0,0,1,6.2,1.331,1.113,1.113,0,0,1,.578.947v2.59c0,.357-.391.77-.8.555a12.531,12.531,0,0,0-11.493.02c-.378.2-.774-.2-.774-.562v-2.461a2.938,2.938,0,0,1,.4-1.668l6.528-9.363h-5.683a.606.606,0,0,1-.629-.61" transform="translate(-299.569 155.106)" fill="#100f0d" fill-rule="evenodd"/>
  <path id="path70" d="M251.46-115.06h-3.31a.623.623,0,0,1-.591-.56l0-16.983a.624.624,0,0,1,.638-.611l3.082,0a.627.627,0,0,1,.6.57v2.219h.061a4.362,4.362,0,0,1,4.354-3.144c2.069,0,3.367,1,4.294,3.144a4.7,4.7,0,0,1,4.573-3.144,4.692,4.692,0,0,1,3.828,1.857c1.05,1.43.834,3.5.834,5.325l0,10.718a.625.625,0,0,1-.638.612h-3.3a.622.622,0,0,1-.595-.61v-9a21.794,21.794,0,0,0-.093-3.18,1.724,1.724,0,0,0-1.945-1.464,2.2,2.2,0,0,0-1.978,1.392,10.294,10.294,0,0,0-.308,3.253v9a.625.625,0,0,1-.638.612h-3.305a.622.622,0,0,1-.594-.61l0-9c0-1.894.31-4.681-2.037-4.681-2.378,0-2.286,2.715-2.286,4.681l0,9a.623.623,0,0,1-.638.612" transform="translate(-181.514 155.962)" fill="#100f0d" fill-rule="evenodd"/>
  <path id="path72" d="M470.992-130.106c-2.441,0-2.6,3.323-2.6,5.4s-.031,6.5,2.565,6.5c2.564,0,2.687-3.574,2.687-5.754a15.707,15.707,0,0,0-.494-4.5A2.073,2.073,0,0,0,470.992-130.106Zm-.03-3.465c4.911,0,7.568,4.217,7.568,9.575,0,5.183-2.936,9.293-7.568,9.293-4.819,0-7.445-4.218-7.445-9.471,0-5.289,2.656-9.4,7.445-9.4" transform="translate(-339.858 155.962)" fill="#100f0d" fill-rule="evenodd"/>
  <path id="path74" d="M532.958-115.06h-3.3a.622.622,0,0,1-.594-.61l0-16.991a.626.626,0,0,1,.634-.554l3.07,0a.63.63,0,0,1,.587.476v2.6h.063c.926-2.323,2.224-3.43,4.508-3.43a4.337,4.337,0,0,1,3.862,2c.864,1.357.864,3.644.864,5.288V-115.6a.627.627,0,0,1-.632.536H538.7a.627.627,0,0,1-.589-.536v-9.222c0-1.858.217-4.575-2.07-4.575a2.168,2.168,0,0,0-1.914,1.358,7.538,7.538,0,0,0-.525,3.217v9.146a.634.634,0,0,1-.644.612" transform="translate(-387.917 155.962)" fill="#100f0d" fill-rule="evenodd"/>
  <path id="path76" d="M354.934-115.558a.686.686,0,0,1-.781.077,8.089,8.089,0,0,1-1.9-2.206,6.558,6.558,0,0,1-5.455,2.405c-2.787,0-4.953-1.719-4.953-5.158a5.621,5.621,0,0,1,3.528-5.408,22.9,22.9,0,0,1,6.222-1.147v-.429a4.232,4.232,0,0,0-.4-2.4,2.207,2.207,0,0,0-1.857-.859,2.521,2.521,0,0,0-2.66,1.987.7.7,0,0,1-.575.608l-3.206-.347a.581.581,0,0,1-.494-.691c.737-3.892,4.251-5.067,7.4-5.067a7.51,7.51,0,0,1,4.984,1.647c1.609,1.5,1.454,3.51,1.454,5.7v5.155a4.517,4.517,0,0,0,1.25,3.067.626.626,0,0,1-.012.88c-.676.566-1.876,1.608-2.536,2.2Zm-3.335-8.069a6.489,6.489,0,0,1-.62,3.51,2.687,2.687,0,0,1-2.291,1.5c-1.268,0-2.011-.967-2.011-2.4,0-2.818,2.528-3.331,4.922-3.331v.716" transform="translate(-250.649 156.417)" fill="#100f0d" fill-rule="evenodd"/>
  <path id="path78" d="M192.336-115.558a.689.689,0,0,1-.783.077,8.1,8.1,0,0,1-1.9-2.206,6.557,6.557,0,0,1-5.456,2.405c-2.786,0-4.953-1.719-4.953-5.158a5.622,5.622,0,0,1,3.53-5.408A22.907,22.907,0,0,1,189-126.995v-.429a4.232,4.232,0,0,0-.4-2.4,2.21,2.21,0,0,0-1.857-.859,2.52,2.52,0,0,0-2.66,1.987.7.7,0,0,1-.575.608l-3.208-.347a.582.582,0,0,1-.494-.691c.737-3.892,4.251-5.067,7.4-5.067a7.509,7.509,0,0,1,4.984,1.647c1.61,1.5,1.454,3.51,1.454,5.7v5.155a4.524,4.524,0,0,0,1.249,3.067.625.625,0,0,1-.01.88c-.676.566-1.878,1.608-2.537,2.2ZM189-123.627a6.5,6.5,0,0,1-.619,3.51,2.687,2.687,0,0,1-2.29,1.5c-1.271,0-2.013-.967-2.013-2.4,0-2.818,2.528-3.331,4.922-3.331v.716" transform="translate(-131.427 156.417)" fill="#100f0d" fill-rule="evenodd"/>
</svg>
