<svg xmlns="http://www.w3.org/2000/svg" xmlns:xlink="http://www.w3.org/1999/xlink">
    <defs>
        <symbol viewBox="0 0 28 28" id="icon-mobile">
          <g fill-rule="evenodd">
            <path d="M17.315 2c-1.125 0-2.25.007-3.374.022h-3.354C8.606 2.022 7 3.614 7 5.579v15.865c0 .943.378 1.848 1.05 2.515A3.602 3.602 0 0010.588 25h6.728c.951 0 1.863-.374 2.536-1.041a3.541 3.541 0 001.05-2.515v-6.401l.02-.914c.06-3.007.086-5.629.077-7.857l-.003-.651c0-2.68-1.217-3.621-3.68-3.621zm-.671 1.533l.67-.001c1.664 0 2.126.342 2.136 2.03l.004.884c.008 2.402-.025 5.263-.097 8.58v6.418c0 .537-.215 1.052-.598 1.431a2.05 2.05 0 01-1.444.593h-6.728a2.05 2.05 0 01-1.444-.593 2.016 2.016 0 01-.598-1.431V5.579c0-1.119.914-2.025 2.042-2.025h3.364c.902-.012 1.798-.019 2.693-.021z"/><path d="M19.278 18c.399 0 .722.448.722 1 0 .536-.305.974-.687.999l-.035.001H7.722C7.323 20 7 19.552 7 19c0-.536.305-.974.687-.999L7.722 18h11.556z"/>
          </g>
        </symbol>
        <symbol viewBox="0 0 28 28" id="icon-desktop">
          <g fill-rule="evenodd">
            <path d="M16.454 20.818h-5.818c-.355 0-.658.221-.717.522l-.727 3.75c-.074.381.268.728.717.728h7.273c.45 0 .79-.347.717-.728l-.727-3.75c-.059-.3-.362-.522-.718-.522zm-.616.637l.485 2.909h-5.555l.485-2.91h4.585z"/>
            <path d="M19.364 24.364a.727.727 0 01.035 1.453l-.035.001H7.727a.727.727 0 01-.035-1.454h11.672zM25.25 17.273c.414 0 .75.325.75.727 0 .39-.316.708-.714.726l-.036.001H2.75A.739.739 0 012 18c0-.39.316-.708.714-.726l.036-.001h22.5z"/><path d="M25.25 2H2.75a.753.753 0 00-.75.755v18.126c0 .417.336.755.75.755h22.5c.414 0 .75-.338.75-.755V2.755A.753.753 0 0025.25 2zm-.75 1.51v16.616h-21V3.51h21z"/>
          </g>
        </symbol>
        <symbol viewBox="0 0 28 28" id="icon-general">
          <path d="M18.316 2c.696 0 1.32.31 1.74.799l1.27.001c1.196 0 2.168.957 2.195 2.148V22.6a2.198 2.198 0 01-2.142 2.2H6.695A2.197 2.197 0 014.5 22.652L4.5 5c0-1.198.955-2.172 2.143-2.2H13.011c.15 0 .29.046.406.124A2.289 2.289 0 0115.257 2zm2.295 2.295v10.708a.765.765 0 01-1.306.54l-2.518-2.518-2.519 2.518a.765.765 0 01-1.305-.505V4.295v-.029H6.695a.732.732 0 00-.73.698L5.962 5v17.6c0 .393.309.714.696.732l.036.001h14.632c.392 0 .712-.309.73-.697l.002-.036V5a.733.733 0 00-.697-.732l-.035-.001-.717-.001.001.029zm-2.295-.765h-3.059a.765.765 0 00-.765.765v8.86l1.754-1.753a.765.765 0 011.052-.028l.03.028 1.753 1.754V4.295a.765.765 0 00-.728-.764l-.037-.001z" fill-rule="evenodd"/>
        </symbol> 
        <symbol viewBox="0 0 28 28" id="icon-web">
          <g fill-rule="evenodd">
            <path d="M25.2 2H2.8a.81.81 0 00-.8.821V24.18a.81.81 0 00.8.821h22.4a.81.81 0 00.8-.821V2.82A.81.81 0 0025.2 2zm-.8 1.643v19.714H3.6V3.643h20.8z"/><path d="M24.233 7c.424 0 .767.448.767 1 0 .536-.323.974-.73.999L24.233 9H2.767C2.343 9 2 8.552 2 8c0-.536.323-.974.73-.999L2.767 7h21.466zM12.2 10H5.8a.8.8 0 00-.8.8v6.4a.8.8 0 00.8.8h6.4a.8.8 0 00.8-.8v-6.4a.8.8 0 00-.8-.8zm-.8 1.6v4.8H6.6v-4.8h4.8zM12.2 20c.442 0 .8.448.8 1 0 .536-.337.974-.761.999L12.2 22H5.8c-.442 0-.8-.448-.8-1 0-.536.337-.974.761-.999L5.8 20h6.4zM22.2 11h-6.4c-.442 0-.8.352-.8.786v9.428c0 .434.358.786.8.786h6.4c.442 0 .8-.352.8-.786v-9.428a.793.793 0 00-.8-.786zm-.8 1.571v7.858h-4.8V12.57h4.8z"/>
            <path d="M22.2 15c.442 0 .8.448.8 1 0 .536-.337.974-.761.999L22.2 17h-6.4c-.442 0-.8-.448-.8-1 0-.536.337-.974.761-.999L15.8 15h6.4z"/>
          </g>
        </symbol> 
        <symbol viewBox="0 0 28 28" id="icon-right">
          <path d="M17.298 14.001L8.386 5.216 8.3 5.123a1.316 1.316 0 01.05-1.728 1.237 1.237 0 011.778-.035l9.223 9.09.119.127a2.178 2.178 0 01-.12 2.977l-9.222 9.089-.093.082a1.24 1.24 0 01-1.685-.117 1.31 1.31 0 01.035-1.821L17.298 14z"  fill-rule="evenodd"/>
        </symbol> 
        <symbol viewBox="0 0 28 28" id="icon-left">
          <path d="M10.702 14.001l8.912-8.785.085-.093a1.316 1.316 0 00-.05-1.728 1.237 1.237 0 00-1.778-.035l-9.223 9.09-.119.127a2.178 2.178 0 00.12 2.977l9.222 9.089.093.082a1.24 1.24 0 001.685-.117 1.31 1.31 0 00-.035-1.821L10.702 14z" fill-rule="evenodd"/>
        </symbol>
        <symbol viewBox="0 0 96 96" id="icon-tick">
          <path d="M66.879 30.879a3 3 0 114.242 4.242l-30 30a3 3 0 01-4.464-.247l-12-15a3 3 0 114.686-3.748l9.906 12.383 27.63-27.63z"></path>
        </symbol>
        <symbol viewBox="0 0 28 28" id="icon-email">
          <path d="M28 11.094v12.406c0 1.375-1.125 2.5-2.5 2.5h-23c-1.375 0-2.5-1.125-2.5-2.5v-12.406c0.469 0.516 1 0.969 1.578 1.359 2.594 1.766 5.219 3.531 7.766 5.391 1.313 0.969 2.938 2.156 4.641 2.156h0.031c1.703 0 3.328-1.188 4.641-2.156 2.547-1.844 5.172-3.625 7.781-5.391 0.562-0.391 1.094-0.844 1.563-1.359zM28 6.5c0 1.75-1.297 3.328-2.672 4.281-2.438 1.687-4.891 3.375-7.313 5.078-1.016 0.703-2.734 2.141-4 2.141h-0.031c-1.266 0-2.984-1.437-4-2.141-2.422-1.703-4.875-3.391-7.297-5.078-1.109-0.75-2.688-2.516-2.688-3.938 0-1.531 0.828-2.844 2.5-2.844h23c1.359 0 2.5 1.125 2.5 2.5z"></path>
        </symbol>
        <symbol viewBox="0 0 28 28" id="icon-facebook">
          <path d="M25.375 0h-22.75c-1.444 0-2.625 1.181-2.625 2.625v22.75c0 1.444 1.181 2.625 2.625 2.625h11.375v-12.25h-3.5v-3.5h3.5v-1.75c0-2.893 2.357-5.25 5.25-5.25h3.5v3.5h-3.5c-0.963 0-1.75 0.787-1.75 1.75v1.75h5.25l-0.875 3.5h-4.375v12.25h7.875c1.444 0 2.625-1.181 2.625-2.625v-22.75c0-1.444-1.181-2.625-2.625-2.625z"></path>
        </symbol>
        <symbol viewBox="0 0 28 28" id="icon-linkedin">
          <path d="M25.375 0h-22.75c-1.444 0-2.625 1.181-2.625 2.625v22.75c0 1.444 1.181 2.625 2.625 2.625h22.75c1.444 0 2.625-1.181 2.625-2.625v-22.75c0-1.444-1.181-2.625-2.625-2.625zM10.5 22.75h-3.5v-12.25h3.5v12.25zM8.75 8.75c-0.968 0-1.75-0.782-1.75-1.75s0.782-1.75 1.75-1.75c0.968 0 1.75 0.782 1.75 1.75s-0.782 1.75-1.75 1.75zM22.75 22.75h-3.5v-7c0-0.968-0.782-1.75-1.75-1.75s-1.75 0.782-1.75 1.75v7h-3.5v-12.25h3.5v2.171c0.722-0.99 1.827-2.171 3.063-2.171 2.177 0 3.938 1.958 3.938 4.375v7.875z"></path>
        </symbol>
        <symbol viewBox="0 0 28 28" id="icon-twitter">
          <path d="M28 6.191c-1.028 0.459-2.138 0.766-3.298 0.902 1.187-0.711 2.095-1.837 2.527-3.177-1.11 0.656-2.341 1.138-3.648 1.395-1.050-1.116-2.543-1.81-4.195-1.81-3.172 0-5.742 2.57-5.742 5.742 0 0.448 0.049 0.886 0.148 1.307-4.774-0.241-9.007-2.527-11.84-6.005-0.492 0.848-0.777 1.838-0.777 2.888 0 1.991 1.012 3.752 2.554 4.78-0.941-0.027-1.827-0.29-2.603-0.716 0 0.022 0 0.049 0 0.071 0 2.784 1.98 5.108 4.61 5.633-0.481 0.131-0.99 0.202-1.515 0.202-0.372 0-0.727-0.038-1.083-0.104 0.733 2.28 2.855 3.943 5.365 3.992-1.969 1.542-4.441 2.461-7.137 2.461-0.465 0-0.919-0.027-1.373-0.082 2.548 1.635 5.567 2.581 8.81 2.581 10.566 0 16.346-8.755 16.346-16.346 0-0.252-0.005-0.498-0.016-0.744 1.121-0.804 2.095-1.816 2.866-2.97z"></path>
        </symbol>
    </defs>
  </svg>